<mxfile host="app.diagrams.net" modified="2024-03-05T12:43:37.381Z" agent="Mozilla/5.0 (Macintosh; Intel Mac OS X 10_15_7) AppleWebKit/537.36 (KHTML, like Gecko) Chrome/122.0.0.0 Safari/537.36" etag="ntDSPuGDFWdtX_BQmXtj" version="24.0.1" type="github">
  <diagram name="Page-1" id="EmSuqY1EnR1Zb_yJjHWw">
    <mxGraphModel dx="1838" dy="1282" grid="0" gridSize="10" guides="1" tooltips="1" connect="1" arrows="1" fold="1" page="0" pageScale="1" pageWidth="827" pageHeight="1169" math="0" shadow="0">
      <root>
        <mxCell id="0" />
        <mxCell id="1" parent="0" />
        <mxCell id="-mhaUfNHZkOBHvGr7sNf-1" value="&lt;font style=&quot;font-size: 14px;&quot;&gt;Initialization&lt;/font&gt;" style="rounded=1;whiteSpace=wrap;html=1;fillStyle=auto;fillColor=#ffe6cc;strokeColor=#d79b00;shadow=1;perimeterSpacing=0;" parent="1" vertex="1">
          <mxGeometry x="41" y="120" width="120" height="40" as="geometry" />
        </mxCell>
        <mxCell id="-mhaUfNHZkOBHvGr7sNf-3" value="&lt;font style=&quot;font-size: 14px;&quot;&gt;Configuration&lt;/font&gt;" style="rounded=1;whiteSpace=wrap;html=1;fillStyle=auto;fillColor=#fff2cc;strokeColor=#d6b656;shadow=1;" parent="1" vertex="1">
          <mxGeometry x="340" y="120" width="120" height="40" as="geometry" />
        </mxCell>
        <mxCell id="-mhaUfNHZkOBHvGr7sNf-4" value="&lt;font style=&quot;font-size: 14px;&quot;&gt;Execution&lt;/font&gt;" style="rounded=1;whiteSpace=wrap;html=1;fillStyle=auto;fillColor=#DCF0DB;strokeColor=#82b366;shadow=1;" parent="1" vertex="1">
          <mxGeometry x="680" y="120" width="120" height="40" as="geometry" />
        </mxCell>
        <mxCell id="-mhaUfNHZkOBHvGr7sNf-5" value="" style="endArrow=classic;html=1;rounded=0;shadow=1;flowAnimation=1;strokeColor=#0000FF;fontStyle=1" parent="1" edge="1">
          <mxGeometry width="50" height="50" relative="1" as="geometry">
            <mxPoint x="170" y="145" as="sourcePoint" />
            <mxPoint x="340" y="144.5" as="targetPoint" />
          </mxGeometry>
        </mxCell>
        <mxCell id="-mhaUfNHZkOBHvGr7sNf-6" value="" style="endArrow=classic;html=1;rounded=0;flowAnimation=1;shadow=1;textShadow=1;strokeColor=#0000FF;" parent="1" edge="1">
          <mxGeometry width="50" height="50" relative="1" as="geometry">
            <mxPoint x="460" y="144.5" as="sourcePoint" />
            <mxPoint x="670" y="145" as="targetPoint" />
          </mxGeometry>
        </mxCell>
        <mxCell id="-mhaUfNHZkOBHvGr7sNf-8" value="&lt;h1&gt;Gradle&lt;/h1&gt;&lt;p&gt;&lt;font style=&quot;font-size: 14px;&quot;&gt;Build Tool&lt;/font&gt;&lt;/p&gt;" style="text;html=1;spacing=5;spacingTop=-20;whiteSpace=wrap;overflow=hidden;rounded=0;" parent="1" vertex="1">
          <mxGeometry x="41" width="160" height="80" as="geometry" />
        </mxCell>
        <mxCell id="-mhaUfNHZkOBHvGr7sNf-10" value="" style="endArrow=classic;html=1;rounded=0;flowAnimation=1;exitX=0.5;exitY=1;exitDx=0;exitDy=0;" parent="1" source="-mhaUfNHZkOBHvGr7sNf-1" edge="1">
          <mxGeometry width="50" height="50" relative="1" as="geometry">
            <mxPoint x="200" y="167" as="sourcePoint" />
            <mxPoint x="100" y="217" as="targetPoint" />
          </mxGeometry>
        </mxCell>
        <mxCell id="-mhaUfNHZkOBHvGr7sNf-11" value="" style="verticalLabelPosition=bottom;html=1;verticalAlign=top;align=center;strokeColor=none;fillColor=#00BEF2;shape=mxgraph.azure.file_2;pointerEvents=1;" parent="1" vertex="1">
          <mxGeometry x="77.25" y="220" width="47.5" height="50" as="geometry" />
        </mxCell>
        <mxCell id="-mhaUfNHZkOBHvGr7sNf-12" value="&lt;b style=&quot;&quot;&gt;&lt;font color=&quot;#cc0000&quot;&gt;Evaluates&lt;/font&gt;&lt;/b&gt;" style="text;html=1;align=center;verticalAlign=middle;whiteSpace=wrap;rounded=0;" parent="1" vertex="1">
          <mxGeometry x="112" y="176" width="60" height="20" as="geometry" />
        </mxCell>
        <mxCell id="-mhaUfNHZkOBHvGr7sNf-13" value="&lt;span style=&quot;color: rgb(51, 51, 255); text-wrap: wrap;&quot;&gt;&lt;b&gt;settings.gradle&lt;/b&gt;&lt;/span&gt;" style="text;html=1;align=center;verticalAlign=middle;resizable=0;points=[];autosize=1;strokeColor=none;fillColor=none;" parent="1" vertex="1">
          <mxGeometry x="46" y="270" width="110" height="30" as="geometry" />
        </mxCell>
        <mxCell id="-mhaUfNHZkOBHvGr7sNf-28" value="&lt;p style=&quot;text-align: left;&quot;&gt;Parse and evaluate build logic Specified in one or more build.gradle(scripts)&lt;/p&gt;&lt;p style=&quot;text-align: left;&quot;&gt;All code in a script is exercised and not wrapped into a callback function&lt;/p&gt;&lt;p style=&quot;text-align: left;&quot;&gt;During configuration phase task actions are not executed&lt;/p&gt;" style="text;html=1;align=center;verticalAlign=middle;whiteSpace=wrap;rounded=0;" parent="1" vertex="1">
          <mxGeometry x="289" y="183" width="250" height="102" as="geometry" />
        </mxCell>
        <mxCell id="-mhaUfNHZkOBHvGr7sNf-32" value="" style="group" parent="1" vertex="1" connectable="0">
          <mxGeometry x="-150" y="180" width="210" height="105" as="geometry" />
        </mxCell>
        <mxCell id="-mhaUfNHZkOBHvGr7sNf-15" value="" style="shape=curlyBracket;whiteSpace=wrap;html=1;rounded=1;flipH=1;labelPosition=right;verticalLabelPosition=middle;align=left;verticalAlign=middle;" parent="-mhaUfNHZkOBHvGr7sNf-32" vertex="1">
          <mxGeometry x="190" y="5" width="20" height="100" as="geometry" />
        </mxCell>
        <mxCell id="-mhaUfNHZkOBHvGr7sNf-16" value="" style="shape=curlyBracket;whiteSpace=wrap;html=1;rounded=1;labelPosition=left;verticalLabelPosition=middle;align=right;verticalAlign=middle;" parent="-mhaUfNHZkOBHvGr7sNf-32" vertex="1">
          <mxGeometry width="20.42" height="100" as="geometry" />
        </mxCell>
        <mxCell id="-mhaUfNHZkOBHvGr7sNf-18" value="&lt;h1&gt;&lt;font style=&quot;font-size: 14px;&quot;&gt;settings.gradle&lt;/font&gt;&lt;/h1&gt;&lt;p&gt;Information about the projects that should participate in the build&lt;/p&gt;" style="text;html=1;spacing=5;spacingTop=-20;whiteSpace=wrap;overflow=hidden;rounded=0;" parent="-mhaUfNHZkOBHvGr7sNf-32" vertex="1">
          <mxGeometry x="20.42473684210526" y="3" width="179.70526315789476" height="97.77777777777779" as="geometry" />
        </mxCell>
        <mxCell id="-mhaUfNHZkOBHvGr7sNf-33" value="" style="shape=curlyBracket;whiteSpace=wrap;html=1;rounded=1;flipH=1;labelPosition=right;verticalLabelPosition=middle;align=left;verticalAlign=middle;rotation=-90;strokeWidth=2;strokeColor=#FF0000;" parent="1" vertex="1">
          <mxGeometry x="390" y="50" width="20" height="250" as="geometry" />
        </mxCell>
        <mxCell id="-mhaUfNHZkOBHvGr7sNf-35" value="" style="endArrow=none;html=1;rounded=1;labelBorderColor=default;fontColor=#FF0000;strokeColor=#FF0000;flowAnimation=0;curved=0;strokeWidth=3;" parent="1" edge="1">
          <mxGeometry width="50" height="50" relative="1" as="geometry">
            <mxPoint x="280" y="290" as="sourcePoint" />
            <mxPoint x="530" y="290" as="targetPoint" />
            <Array as="points">
              <mxPoint x="280" y="300" />
              <mxPoint x="530" y="300" />
            </Array>
          </mxGeometry>
        </mxCell>
        <mxCell id="-mhaUfNHZkOBHvGr7sNf-36" value="&lt;p style=&quot;text-align: left;&quot;&gt;Looks at the directed acyclic graph, that was built in memory and executes every task action in the correct order&lt;/p&gt;&lt;p style=&quot;text-align: left;&quot;&gt;&lt;br&gt;&lt;/p&gt;" style="text;html=1;align=center;verticalAlign=middle;whiteSpace=wrap;rounded=0;" parent="1" vertex="1">
          <mxGeometry x="633.5" y="183" width="211" height="73" as="geometry" />
        </mxCell>
        <mxCell id="-mhaUfNHZkOBHvGr7sNf-37" value="" style="shape=curlyBracket;whiteSpace=wrap;html=1;rounded=1;flipH=1;labelPosition=right;verticalLabelPosition=middle;align=left;verticalAlign=middle;rotation=-90;strokeWidth=2;strokeColor=#FF0000;" parent="1" vertex="1">
          <mxGeometry x="727.5" y="57" width="20" height="236" as="geometry" />
        </mxCell>
        <mxCell id="-mhaUfNHZkOBHvGr7sNf-38" value="" style="endArrow=none;html=1;rounded=1;labelBorderColor=default;fontColor=#FF0000;strokeColor=#FF0000;flowAnimation=0;curved=0;strokeWidth=3;" parent="1" edge="1">
          <mxGeometry width="50" height="50" relative="1" as="geometry">
            <mxPoint x="620" y="236" as="sourcePoint" />
            <mxPoint x="855" y="226" as="targetPoint" />
            <Array as="points">
              <mxPoint x="620" y="246" />
              <mxPoint x="855" y="246" />
            </Array>
          </mxGeometry>
        </mxCell>
        <mxCell id="-mhaUfNHZkOBHvGr7sNf-40" value="" style="shape=mxgraph.arrows.jump-in_arrow_2;html=1;verticalLabelPosition=bottom;verticalAlign=top;strokeWidth=2;strokeColor=#0000FF;fixDash=0;shadow=1;textShadow=1;" parent="1" vertex="1">
          <mxGeometry x="180" y="280" width="96" height="99" as="geometry" />
        </mxCell>
        <mxCell id="-mhaUfNHZkOBHvGr7sNf-42" value="&lt;h1&gt;//Configuration&amp;nbsp;&lt;/h1&gt;&lt;div style=&quot;font-size: 18px;&quot;&gt;&lt;font face=&quot;Courier New&quot; style=&quot;font-size: 18px;&quot;&gt;task helloWorld {&lt;/font&gt;&lt;/div&gt;&lt;div style=&quot;&quot;&gt;&lt;font face=&quot;QgnmnIAiz-PSKT1NuUQ2&quot; style=&quot;font-size: 18px;&quot;&gt;&lt;span style=&quot;white-space: pre;&quot;&gt;&#x9;&lt;/span&gt;// &lt;/font&gt;&lt;font face=&quot;QgnmnIAiz-PSKT1NuUQ2&quot; style=&quot;&quot;&gt;&lt;font color=&quot;#ff8000&quot; style=&quot;font-size: 16px;&quot;&gt;Configuration Code&lt;/font&gt;&lt;br&gt;&lt;/font&gt;&lt;/div&gt;&lt;div style=&quot;font-size: 18px;&quot;&gt;&lt;font face=&quot;QgnmnIAiz-PSKT1NuUQ2&quot; style=&quot;font-size: 18px;&quot;&gt;&lt;br&gt;&lt;/font&gt;&lt;/div&gt;&lt;div style=&quot;font-size: 18px;&quot;&gt;&lt;font face=&quot;QgnmnIAiz-PSKT1NuUQ2&quot; style=&quot;font-size: 18px;&quot;&gt;&lt;span style=&quot;white-space: pre;&quot;&gt;&#x9;&lt;/span&gt;doFirst {&amp;nbsp;&amp;nbsp;&lt;span style=&quot;background-color: initial;&quot;&gt;}&lt;/span&gt;&lt;/font&gt;&lt;/div&gt;&lt;div style=&quot;font-size: 18px;&quot;&gt;&lt;font face=&quot;QgnmnIAiz-PSKT1NuUQ2&quot; style=&quot;font-size: 18px;&quot;&gt;&amp;nbsp;&lt;/font&gt;&lt;/div&gt;&lt;div style=&quot;font-size: 18px;&quot;&gt;&lt;font face=&quot;QgnmnIAiz-PSKT1NuUQ2&quot; style=&quot;font-size: 18px;&quot;&gt;&lt;span style=&quot;white-space: pre;&quot;&gt;&#x9;&lt;/span&gt;doLast {&amp;nbsp;&amp;nbsp;&lt;span style=&quot;background-color: initial;&quot;&gt;}&lt;/span&gt;&lt;/font&gt;&lt;/div&gt;&lt;div style=&quot;font-size: 18px;&quot;&gt;&lt;font face=&quot;QgnmnIAiz-PSKT1NuUQ2&quot; style=&quot;font-size: 18px;&quot;&gt;}&lt;/font&gt;&lt;/div&gt;" style="text;html=1;spacing=5;spacingTop=-20;whiteSpace=wrap;overflow=hidden;rounded=0;" parent="1" vertex="1">
          <mxGeometry x="90" y="383" width="552.75" height="240" as="geometry" />
        </mxCell>
        <mxCell id="-mhaUfNHZkOBHvGr7sNf-45" value="&lt;font style=&quot;font-size: 14px;&quot;&gt;Always outside of doFirst and doLast actions&lt;/font&gt;" style="text;html=1;align=center;verticalAlign=middle;whiteSpace=wrap;rounded=0;" parent="1" vertex="1">
          <mxGeometry x="271.75" y="452" width="300" height="30" as="geometry" />
        </mxCell>
        <mxCell id="-mhaUfNHZkOBHvGr7sNf-46" value="&lt;font style=&quot;font-size: 14px;&quot;&gt;Executed during configuration phase&lt;/font&gt;" style="text;html=1;align=center;verticalAlign=middle;whiteSpace=wrap;rounded=0;" parent="1" vertex="1">
          <mxGeometry x="268.25" y="475" width="253.5" height="30" as="geometry" />
        </mxCell>
        <mxCell id="-mhaUfNHZkOBHvGr7sNf-49" value="" style="shape=partialRectangle;whiteSpace=wrap;html=1;bottom=1;right=1;left=1;top=0;fillColor=none;routingCenterX=-0.5;rotation=-180;shadow=1;textShadow=1;perimeterSpacing=0;strokeWidth=2;enumerate=0;" parent="1" vertex="1">
          <mxGeometry x="22" y="380" width="548" height="20" as="geometry" />
        </mxCell>
        <mxCell id="-mhaUfNHZkOBHvGr7sNf-50" value="" style="shape=partialRectangle;whiteSpace=wrap;html=1;bottom=1;right=1;left=1;top=0;fillColor=none;routingCenterX=-0.5;rotation=0;shadow=1;textShadow=1;perimeterSpacing=0;strokeWidth=2;enumerate=0;" parent="1" vertex="1">
          <mxGeometry x="22" y="576" width="548" height="20" as="geometry" />
        </mxCell>
        <mxCell id="-mhaUfNHZkOBHvGr7sNf-51" value="&lt;h1&gt;//Execution&amp;nbsp;&lt;/h1&gt;&lt;div style=&quot;font-size: 18px;&quot;&gt;&lt;font face=&quot;Courier New&quot; style=&quot;font-size: 18px;&quot;&gt;task helloWorld&amp;nbsp;&lt;/font&gt;&lt;/div&gt;&lt;div style=&quot;font-size: 18px;&quot;&gt;&lt;font face=&quot;QgnmnIAiz-PSKT1NuUQ2&quot; style=&quot;font-size: 18px;&quot;&gt;&lt;br&gt;&lt;/font&gt;&lt;/div&gt;&lt;div style=&quot;font-size: 18px;&quot;&gt;&lt;font face=&quot;QgnmnIAiz-PSKT1NuUQ2&quot; style=&quot;font-size: 18px;&quot;&gt;&lt;span style=&quot;white-space: pre;&quot;&gt;&#x9;&lt;/span&gt;doFirst {&lt;/font&gt;&lt;/div&gt;&lt;div style=&quot;font-size: 18px;&quot;&gt;&lt;font face=&quot;QgnmnIAiz-PSKT1NuUQ2&quot; style=&quot;font-size: 18px;&quot;&gt;&lt;span style=&quot;white-space: pre;&quot;&gt;&#x9;&lt;/span&gt;&lt;span style=&quot;white-space: pre;&quot;&gt;&#x9;&lt;/span&gt;&amp;nbsp;&amp;nbsp;&lt;/font&gt;&lt;font style=&quot;background-color: initial;&quot; face=&quot;QgnmnIAiz-PSKT1NuUQ2&quot;&gt;//&amp;nbsp;&lt;/font&gt;&lt;font style=&quot;background-color: initial; font-size: 12px;&quot; face=&quot;QgnmnIAiz-PSKT1NuUQ2&quot;&gt;&lt;font style=&quot;font-size: 16px;&quot; color=&quot;#ff8000&quot;&gt;Execution Code&lt;/font&gt;&lt;/font&gt;&lt;/div&gt;&lt;div style=&quot;font-size: 18px;&quot;&gt;&lt;span style=&quot;background-color: initial; font-family: QgnmnIAiz-PSKT1NuUQ2; white-space: pre;&quot;&gt;&#x9;&lt;/span&gt;&lt;span style=&quot;background-color: initial; font-family: QgnmnIAiz-PSKT1NuUQ2;&quot;&gt;}&lt;/span&gt;&lt;/div&gt;&lt;div style=&quot;font-size: 18px;&quot;&gt;&lt;/div&gt;&lt;div style=&quot;font-size: 18px;&quot;&gt;&lt;/div&gt;&lt;div style=&quot;font-size: 18px;&quot;&gt;&lt;/div&gt;&lt;div style=&quot;font-size: 18px;&quot;&gt;&lt;font face=&quot;QgnmnIAiz-PSKT1NuUQ2&quot; style=&quot;font-size: 18px;&quot;&gt;&amp;nbsp;&lt;span style=&quot;white-space: pre;&quot;&gt;&#x9;&lt;/span&gt;&lt;/font&gt;&lt;/div&gt;&lt;div style=&quot;font-size: 18px;&quot;&gt;&lt;span style=&quot;font-family: QgnmnIAiz-PSKT1NuUQ2; background-color: initial;&quot;&gt;&lt;span style=&quot;white-space: pre;&quot;&gt;&#x9;&lt;/span&gt;doLast {&lt;/span&gt;&lt;/div&gt;&lt;div style=&quot;font-size: 18px;&quot;&gt;&lt;font face=&quot;QgnmnIAiz-PSKT1NuUQ2&quot;&gt;&lt;span style=&quot;white-space: pre;&quot;&gt;&#x9;&lt;/span&gt;&lt;span style=&quot;white-space: pre;&quot;&gt;&#x9;&lt;/span&gt;&amp;nbsp;&amp;nbsp;&lt;/font&gt;&lt;font style=&quot;background-color: initial;&quot; face=&quot;QgnmnIAiz-PSKT1NuUQ2&quot;&gt;//&amp;nbsp;&lt;/font&gt;&lt;font style=&quot;background-color: initial; font-size: 12px;&quot; face=&quot;QgnmnIAiz-PSKT1NuUQ2&quot;&gt;&lt;font style=&quot;font-size: 16px;&quot; color=&quot;#ff8000&quot;&gt;Execution Code&lt;/font&gt;&lt;/font&gt;&lt;/div&gt;&lt;div style=&quot;font-size: 18px;&quot;&gt;&lt;span style=&quot;background-color: initial; font-family: QgnmnIAiz-PSKT1NuUQ2; white-space: pre;&quot;&gt;&#x9;&lt;/span&gt;&lt;span style=&quot;background-color: initial; font-family: QgnmnIAiz-PSKT1NuUQ2;&quot;&gt;}&lt;/span&gt;&lt;/div&gt;&lt;div style=&quot;font-size: 18px;&quot;&gt;&lt;br&gt;&lt;/div&gt;&lt;div style=&quot;font-size: 18px;&quot;&gt;&lt;font face=&quot;QgnmnIAiz-PSKT1NuUQ2&quot; style=&quot;font-size: 18px;&quot;&gt;}&lt;/font&gt;&lt;/div&gt;" style="text;html=1;spacing=5;spacingTop=-20;whiteSpace=wrap;overflow=hidden;rounded=0;" parent="1" vertex="1">
          <mxGeometry x="710.75" y="347" width="552.75" height="258" as="geometry" />
        </mxCell>
        <mxCell id="-mhaUfNHZkOBHvGr7sNf-52" value="&lt;font style=&quot;font-size: 14px;&quot;&gt;Always inside of doFirst and doLast actions&lt;/font&gt;" style="text;html=1;align=center;verticalAlign=middle;whiteSpace=wrap;rounded=0;" parent="1" vertex="1">
          <mxGeometry x="907.5" y="462" width="300" height="30" as="geometry" />
        </mxCell>
        <mxCell id="-mhaUfNHZkOBHvGr7sNf-53" value="&lt;font style=&quot;font-size: 14px;&quot;&gt;Executed during Execution phase&lt;/font&gt;" style="text;html=1;align=center;verticalAlign=middle;whiteSpace=wrap;rounded=0;" parent="1" vertex="1">
          <mxGeometry x="904" y="485" width="253.5" height="30" as="geometry" />
        </mxCell>
        <mxCell id="-mhaUfNHZkOBHvGr7sNf-54" value="" style="shape=partialRectangle;whiteSpace=wrap;html=1;bottom=1;right=1;left=1;top=0;fillColor=none;routingCenterX=-0.5;rotation=-180;shadow=1;textShadow=1;perimeterSpacing=0;strokeWidth=2;enumerate=0;" parent="1" vertex="1">
          <mxGeometry x="642.75" y="344" width="548" height="20" as="geometry" />
        </mxCell>
        <mxCell id="-mhaUfNHZkOBHvGr7sNf-55" value="" style="shape=partialRectangle;whiteSpace=wrap;html=1;bottom=1;right=1;left=1;top=0;fillColor=none;routingCenterX=-0.5;rotation=0;shadow=1;textShadow=1;perimeterSpacing=0;strokeWidth=2;enumerate=0;" parent="1" vertex="1">
          <mxGeometry x="642.75" y="588" width="548" height="20" as="geometry" />
        </mxCell>
        <mxCell id="-mhaUfNHZkOBHvGr7sNf-56" value="" style="shape=mxgraph.arrows.jump-in_arrow_1;html=1;verticalLabelPosition=bottom;verticalAlign=top;strokeWidth=2;strokeColor=#0000FF;shadow=1;textShadow=1;" parent="1" vertex="1">
          <mxGeometry x="869" y="236" width="96" height="99" as="geometry" />
        </mxCell>
        <mxCell id="qm34nDd9KGedp8nE5YLr-1" value="&lt;h1&gt;Plugins&lt;/h1&gt;&lt;p&gt;&lt;/p&gt;&lt;ul&gt;&lt;li&gt;Avoid Repetitive Code.&lt;/li&gt;&lt;li&gt;Make Build Logic more Maintainable&lt;/li&gt;&lt;li&gt;Provide Reusable Functionality across projects&lt;/li&gt;&lt;/ul&gt;&lt;p&gt;&lt;/p&gt;&lt;p&gt;&lt;br&gt;&lt;/p&gt;" style="text;html=1;spacing=5;spacingTop=-20;whiteSpace=wrap;overflow=hidden;rounded=0;" vertex="1" parent="1">
          <mxGeometry x="26" y="662" width="304" height="120" as="geometry" />
        </mxCell>
        <mxCell id="qm34nDd9KGedp8nE5YLr-2" value="" style="shape=image;html=1;verticalLabelPosition=bottom;verticalAlign=top;imageAspect=1;aspect=fixed;image=img/clipart/Gear_128x128.png" vertex="1" parent="1">
          <mxGeometry x="217" y="782" width="52" height="61" as="geometry" />
        </mxCell>
        <mxCell id="qm34nDd9KGedp8nE5YLr-3" value="&lt;font style=&quot;font-size: 13px;&quot;&gt;Plugins&lt;/font&gt;" style="text;html=1;align=center;verticalAlign=middle;resizable=0;points=[];autosize=1;strokeColor=none;fillColor=none;" vertex="1" parent="1">
          <mxGeometry x="212.5" y="834" width="61" height="28" as="geometry" />
        </mxCell>
        <mxCell id="qm34nDd9KGedp8nE5YLr-4" value="" style="endArrow=classic;html=1;rounded=0;flowAnimation=1;strokeColor=#0000FF;strokeWidth=2;" edge="1" parent="1">
          <mxGeometry width="50" height="50" relative="1" as="geometry">
            <mxPoint x="223" y="862" as="sourcePoint" />
            <mxPoint x="183" y="910" as="targetPoint" />
          </mxGeometry>
        </mxCell>
        <mxCell id="qm34nDd9KGedp8nE5YLr-5" value="" style="endArrow=classic;html=1;rounded=0;flowAnimation=1;strokeWidth=2;strokeColor=#3333FF;" edge="1" parent="1">
          <mxGeometry width="50" height="50" relative="1" as="geometry">
            <mxPoint x="261.25" y="861" as="sourcePoint" />
            <mxPoint x="296.25" y="904" as="targetPoint" />
          </mxGeometry>
        </mxCell>
        <mxCell id="qm34nDd9KGedp8nE5YLr-6" value="" style="shape=image;html=1;verticalLabelPosition=bottom;verticalAlign=top;imageAspect=1;aspect=fixed;image=img/clipart/Gear_128x128.png" vertex="1" parent="1">
          <mxGeometry x="108" y="917" width="52" height="61" as="geometry" />
        </mxCell>
        <mxCell id="qm34nDd9KGedp8nE5YLr-7" value="" style="shape=image;html=1;verticalLabelPosition=bottom;verticalAlign=top;imageAspect=1;aspect=fixed;image=img/clipart/Gear_128x128.png" vertex="1" parent="1">
          <mxGeometry x="276.25" y="917" width="52" height="61" as="geometry" />
        </mxCell>
        <mxCell id="qm34nDd9KGedp8nE5YLr-11" value="&lt;font style=&quot;font-size: 14px;&quot;&gt;script plugin&lt;/font&gt;" style="text;html=1;align=center;verticalAlign=middle;whiteSpace=wrap;rounded=0;" vertex="1" parent="1">
          <mxGeometry x="90" y="980" width="78" height="30" as="geometry" />
        </mxCell>
        <mxCell id="qm34nDd9KGedp8nE5YLr-12" value="&lt;font style=&quot;font-size: 14px;&quot;&gt;binary plugin&lt;/font&gt;" style="text;html=1;align=center;verticalAlign=middle;whiteSpace=wrap;rounded=0;" vertex="1" parent="1">
          <mxGeometry x="272.25" y="980" width="113" height="30" as="geometry" />
        </mxCell>
        <mxCell id="qm34nDd9KGedp8nE5YLr-25" value="&lt;ul&gt;&lt;li&gt;&lt;span style=&quot;background-color: initial;&quot;&gt;Just another build script&lt;/span&gt;&lt;/li&gt;&lt;li&gt;&lt;span style=&quot;background-color: initial;&quot;&gt;Can be included in build.gradle&lt;/span&gt;&lt;/li&gt;&lt;li&gt;&lt;span style=&quot;background-color: initial;&quot;&gt;split up the build logic and make it more maintainable.&amp;nbsp;&lt;/span&gt;&lt;/li&gt;&lt;/ul&gt;" style="text;strokeColor=none;fillColor=none;html=1;whiteSpace=wrap;verticalAlign=middle;overflow=hidden;" vertex="1" parent="1">
          <mxGeometry x="-20" y="999" width="259" height="80" as="geometry" />
        </mxCell>
        <mxCell id="qm34nDd9KGedp8nE5YLr-26" value="&lt;ul&gt;&lt;li&gt;Meant for &lt;b&gt;more complex logic&lt;/b&gt; bundled into a &lt;b&gt;JAR&lt;/b&gt; file&lt;/li&gt;&lt;li&gt;&lt;b&gt;Reason&lt;/b&gt;: Reuse the logic across multiple self-contained software projects (s/w projects usually live in different VC repos.&lt;/li&gt;&lt;li&gt;Available as part of gradle distribution, they are called &lt;b&gt;core plugin&lt;/b&gt;. (community plugin are also available.)&lt;/li&gt;&lt;li&gt;&lt;b&gt;Example&lt;/b&gt;: base Plugin provides &lt;b&gt;tasks&lt;/b&gt; and &lt;b&gt;conventions&lt;/b&gt;&lt;/li&gt;&lt;/ul&gt;" style="text;strokeColor=none;fillColor=none;html=1;whiteSpace=wrap;verticalAlign=middle;overflow=hidden;" vertex="1" parent="1">
          <mxGeometry x="261.25" y="999" width="361.75" height="118" as="geometry" />
        </mxCell>
        <mxCell id="qm34nDd9KGedp8nE5YLr-28" value="" style="group" vertex="1" connectable="0" parent="1">
          <mxGeometry x="30" y="1150" width="304.25" height="181" as="geometry" />
        </mxCell>
        <mxCell id="qm34nDd9KGedp8nE5YLr-13" value="" style="verticalLabelPosition=bottom;html=1;verticalAlign=top;align=center;strokeColor=none;fillColor=#00BEF2;shape=mxgraph.azure.file_2;pointerEvents=1;" vertex="1" parent="qm34nDd9KGedp8nE5YLr-28">
          <mxGeometry x="31.25" y="60.5" width="47.5" height="50" as="geometry" />
        </mxCell>
        <mxCell id="qm34nDd9KGedp8nE5YLr-14" value="&lt;span style=&quot;color: rgb(51, 51, 255); text-wrap: wrap;&quot;&gt;&lt;b&gt;settings.gradle&lt;/b&gt;&lt;/span&gt;" style="text;html=1;align=center;verticalAlign=middle;resizable=0;points=[];autosize=1;strokeColor=none;fillColor=none;" vertex="1" parent="qm34nDd9KGedp8nE5YLr-28">
          <mxGeometry y="110.5" width="110" height="30" as="geometry" />
        </mxCell>
        <mxCell id="qm34nDd9KGedp8nE5YLr-16" value="" style="endArrow=classic;html=1;rounded=0;flowAnimation=1;strokeWidth=2;strokeColor=#3333FF;" edge="1" parent="qm34nDd9KGedp8nE5YLr-28">
          <mxGeometry width="50" height="50" relative="1" as="geometry">
            <mxPoint x="97.25" y="88" as="sourcePoint" />
            <mxPoint x="186.25" y="88" as="targetPoint" />
          </mxGeometry>
        </mxCell>
        <mxCell id="qm34nDd9KGedp8nE5YLr-17" value="" style="edgeStyle=segmentEdgeStyle;endArrow=classic;html=1;curved=0;rounded=0;endSize=8;startSize=8;flowAnimation=1;strokeWidth=2;strokeColor=#3333FF;" edge="1" parent="qm34nDd9KGedp8nE5YLr-28">
          <mxGeometry width="50" height="50" relative="1" as="geometry">
            <mxPoint x="184.25" y="89" as="sourcePoint" />
            <mxPoint x="216.25" y="39" as="targetPoint" />
            <Array as="points">
              <mxPoint x="184.25" y="89" />
              <mxPoint x="184.25" y="39" />
            </Array>
          </mxGeometry>
        </mxCell>
        <mxCell id="qm34nDd9KGedp8nE5YLr-18" value="" style="edgeStyle=segmentEdgeStyle;endArrow=classic;html=1;curved=0;rounded=0;endSize=8;startSize=8;flowAnimation=1;strokeWidth=2;strokeColor=#3333FF;" edge="1" parent="qm34nDd9KGedp8nE5YLr-28">
          <mxGeometry width="50" height="50" relative="1" as="geometry">
            <mxPoint x="184.25" y="87" as="sourcePoint" />
            <mxPoint x="216.25" y="127" as="targetPoint" />
            <Array as="points">
              <mxPoint x="184.25" y="127" />
            </Array>
          </mxGeometry>
        </mxCell>
        <mxCell id="qm34nDd9KGedp8nE5YLr-20" value="&lt;font style=&quot;font-size: 13px;&quot;&gt;Includes&lt;/font&gt;" style="text;html=1;align=center;verticalAlign=middle;whiteSpace=wrap;rounded=0;" vertex="1" parent="qm34nDd9KGedp8nE5YLr-28">
          <mxGeometry x="92.25" y="61" width="60" height="30" as="geometry" />
        </mxCell>
        <mxCell id="qm34nDd9KGedp8nE5YLr-21" value="" style="verticalLabelPosition=bottom;html=1;verticalAlign=top;align=center;strokeColor=none;fillColor=#00BEF2;shape=mxgraph.azure.file_2;pointerEvents=1;" vertex="1" parent="qm34nDd9KGedp8nE5YLr-28">
          <mxGeometry x="219.75" width="47.5" height="50" as="geometry" />
        </mxCell>
        <mxCell id="qm34nDd9KGedp8nE5YLr-22" value="" style="verticalLabelPosition=bottom;html=1;verticalAlign=top;align=center;strokeColor=none;fillColor=#00BEF2;shape=mxgraph.azure.file_2;pointerEvents=1;" vertex="1" parent="qm34nDd9KGedp8nE5YLr-28">
          <mxGeometry x="219.75" y="105" width="47.5" height="50" as="geometry" />
        </mxCell>
        <mxCell id="qm34nDd9KGedp8nE5YLr-23" value="&lt;font style=&quot;font-size: 13px;&quot;&gt;publishing.gradle&lt;/font&gt;" style="text;html=1;align=center;verticalAlign=middle;whiteSpace=wrap;rounded=0;" vertex="1" parent="qm34nDd9KGedp8nE5YLr-28">
          <mxGeometry x="237.25" y="45" width="60" height="30" as="geometry" />
        </mxCell>
        <mxCell id="qm34nDd9KGedp8nE5YLr-24" value="&lt;font style=&quot;font-size: 13px;&quot;&gt;deployment.gradle&lt;/font&gt;" style="text;html=1;align=center;verticalAlign=middle;whiteSpace=wrap;rounded=0;" vertex="1" parent="qm34nDd9KGedp8nE5YLr-28">
          <mxGeometry x="244.25" y="151" width="60" height="30" as="geometry" />
        </mxCell>
        <mxCell id="qm34nDd9KGedp8nE5YLr-29" value="1" style="text;strokeColor=none;fillColor=none;html=1;fontSize=24;fontStyle=1;verticalAlign=middle;align=center;" vertex="1" parent="1">
          <mxGeometry x="74" y="176" width="26" height="27" as="geometry" />
        </mxCell>
        <mxCell id="qm34nDd9KGedp8nE5YLr-30" value="2" style="text;strokeColor=none;fillColor=none;html=1;fontSize=24;fontStyle=1;verticalAlign=middle;align=center;" vertex="1" parent="1">
          <mxGeometry x="227" y="115" width="26" height="27" as="geometry" />
        </mxCell>
        <mxCell id="qm34nDd9KGedp8nE5YLr-31" value="3" style="text;strokeColor=none;fillColor=none;html=1;fontSize=24;fontStyle=1;verticalAlign=middle;align=center;" vertex="1" parent="1">
          <mxGeometry x="539" y="112" width="26" height="27" as="geometry" />
        </mxCell>
      </root>
    </mxGraphModel>
  </diagram>
</mxfile>
